<svg xmlns="http://www.w3.org/2000/svg">
    <symbol id="plane" viewBox="0 0 19 21">
        <path d="M18.9 18.9c-.1-.3-3.7-10.1-3.7-10.1-.1-.5.1-.7.3-1.1 0 0 2.1-3.5 2.8-4.6.7-1.2.6-2.3-.1-2.8s-1.7-.1-2.5 1-3 4.5-3 4.5c-.3.4-.4.7-.9.8-.1-.1-10.3.4-10.6.4-.3 0-.7.1-1 .6-.4.7-.2.9.2 1 0 0 8 2.6 8.3 2.7.3 0 .3.2.2.6-.2.4-1.4 2.3-1.6 2.6-.1.2-.2.2-.4.3l-2.8 1c-.1 0-.3.1-.4.3l-.4.6c-.2.3-.1.5.2.5.3.1 2.1.2 2.1.2s.3.1.4.1c.2.1.4.3.2.6-.3.6-.4 1.2-.2 1.3s.6-.2 1-.7c.2-.3.4-.2.6 0 .2-.1.4.1.4.1s.8 1.6 1 1.9c.2.3.4.3.6 0l.4-.6c.1-.1.1-.3.1-.5l-.3-3.1c0-.2 0-.2.1-.5.1-.2 1.4-2.2 1.6-2.5.2-.3.4-.3.6-.1.2.2 5.7 6.7 5.7 6.7.3.3.5.4.9-.2.4-.4.3-.8.2-1z"/>
    </symbol>
    <symbol id="bus" viewBox="0 0 17 21">
        <path d="M16.2 3.1c-.2-1.2-1-1.6-2.1-2.1-1.1-.4-3.7-1-5.6-1C6.6 0 4 .6 2.9 1c-1.1.5-1.8.9-2.1 2.1L0 9.5v8.8h1.4v1.4c0 1.7 2.5 1.7 2.5 0v-1.4h9.2v1.4c0 1.7 2.5 1.7 2.5 0v-1.4H17V9.5l-.8-6.4zM5 1.6h7c.7 0 .7 1 0 1H5c-.7.1-.7-1 0-1zm-2.3 14c-.6 0-1.2-.5-1.2-1.2s.5-1.2 1.2-1.2c.6 0 1.2.5 1.2 1.2-.1.6-.6 1.2-1.2 1.2zm5.7-5.4H2.2c-.6 0-.7-.4-.7-.9l.6-4.7c.1-.6.3-.9 1-.9h10.7c.7 0 .9.4 1 .9l.6 4.7c.1.4-.1.9-.7.9H8.4zm5.9 5.4c-.6 0-1.2-.5-1.2-1.2s.5-1.2 1.2-1.2c.6 0 1.2.5 1.2 1.2 0 .6-.5 1.2-1.2 1.2z"/>
    </symbol>
    <symbol id="bike" viewBox="0 0 24 21">
        <path d="M16 3.6c1 0 1.8-.8 1.8-1.8S17 0 16 0s-1.8.8-1.8 1.8.8 1.8 1.8 1.8zm3 7.4c-2.8 0-5 2.3-5 5s2.2 5 5 5 5-2.3 5-5-2.2-5-5-5zm0 8.6c-1.9 0-3.5-1.6-3.5-3.5s1.6-3.5 3.5-3.5 3.5 1.6 3.5 3.5-1.6 3.5-3.5 3.5zM14.8 8.9H19V7.1h-3.2l-1.9-3.3c-.3-.5-.8-.8-1.5-.8-.5 0-.9.2-1.2.5L7.5 7.2c-.3.3-.5.7-.5 1.2 0 .6.3 1.2.8 1.5l3.3 2v5H13v-6.5l-2.2-1.7 2.3-2.4 1.7 2.6zM5 11c-2.8 0-5 2.3-5 5s2.2 5 5 5 5-2.3 5-5-2.2-5-5-5zm0 8.6c-1.9 0-3.5-1.6-3.5-3.5s1.6-3.5 3.5-3.5 3.5 1.5 3.5 3.5-1.6 3.5-3.5 3.5z"/>
    </symbol>
    <symbol id="run" viewBox="0 0 20 21">
        <ellipse cx="14.3" cy="2" rx="2.1" ry="2"/><path d="M19.4 4.6c-.5-.2-1.2-.1-1.4.4l-.9 1.6L13 4.3c-.2-.1-.3-.1-.6-.1H7.9c-.4 0-.7.1-.9.5L5.3 7.6c-.3.5-.1 1.1.4 1.3.2.1.4.1.5.1.4 0 .8-.2 1-.5l1.4-2.4h1.6l-4.7 8.1H1.1c-.6 0-1.1.4-1.1 1s.5 1 1.1 1h5c.4 0 .7-.2.9-.5l1.9-3.2 3 2.6-.2 4.9c-.1.5.4 1 1 1h.1c.6 0 1-.4 1.1-.9l.3-5.4c0-.3-.1-.6-.3-.8l-2.6-2.2L14 7.1l3.1 1.8c0 .1.4.2.6.1.3-.1.5-.2.7-.5L19.9 6c.3-.5.1-1.1-.5-1.4z"/>
    </symbol>
</svg>